<?xml version="1.0" encoding="utf-8"?>
<!-- Generator: Adobe Illustrator 21.1.0, SVG Export Plug-In . SVG Version: 6.00 Build 0)  -->
<svg version="1.1" id="Layer_1" xmlns="http://www.w3.org/2000/svg" xmlns:xlink="http://www.w3.org/1999/xlink" x="0px" y="0px"
	 viewBox="0 0 85 85" style="enable-background:new 0 0 85 85;" xml:space="preserve">
<style type="text/css">
	.st0{fill:#606F7E;}
</style>
<g>
	<path class="st0" d="M76.7,16.6c-1.1-1.1-2.4-1.6-3.9-1.6h-5.5v-4.1c0-1.9-0.7-3.5-2-4.9c-1.3-1.3-3-2-4.9-2h-2.8
		c-1.9,0-3.5,0.7-4.9,2c-1.3,1.3-2,3-2,4.9V15H34.3v-4.1c0-1.9-0.7-3.5-2-4.9c-1.3-1.3-3-2-4.9-2h-2.8c-1.9,0-3.5,0.7-4.9,2
		c-1.3,1.3-2,3-2,4.9V15h-5.5c-1.5,0-2.8,0.5-3.9,1.6c-1.1,1.1-1.6,2.4-1.6,3.9v55c0,1.5,0.5,2.8,1.6,3.9c1.1,1.1,2.4,1.6,3.9,1.6
		h60.5c1.5,0,2.8-0.5,3.9-1.6c1.1-1.1,1.6-2.4,1.6-3.9v-55C78.3,19,77.7,17.7,76.7,16.6z M24.6,75.5H12.3V63.2h12.4V75.5z
		 M24.6,60.4H12.3V46.6h12.4V60.4z M24.6,43.9H12.3V31.5h12.4V43.9z M23.7,24.2c-0.3-0.3-0.4-0.6-0.4-1V10.9c0-0.4,0.1-0.7,0.4-1
		c0.3-0.3,0.6-0.4,1-0.4h2.8c0.4,0,0.7,0.1,1,0.4c0.3,0.3,0.4,0.6,0.4,1v12.4c0,0.4-0.1,0.7-0.4,1c-0.3,0.3-0.6,0.4-1,0.4h-2.8
		C24.3,24.6,23.9,24.5,23.7,24.2z M41.1,75.5H27.4V63.2h13.8L41.1,75.5L41.1,75.5z M41.1,60.4H27.4V46.6h13.8L41.1,60.4L41.1,60.4z
		 M41.1,43.9H27.4V31.5h13.8L41.1,43.9L41.1,43.9z M57.7,75.5H43.9V63.2h13.8V75.5z M57.7,60.4H43.9V46.6h13.8V60.4z M57.7,43.9
		H43.9V31.5h13.8V43.9z M56.7,24.2c-0.3-0.3-0.4-0.6-0.4-1V10.9c0-0.4,0.1-0.7,0.4-1c0.3-0.3,0.6-0.4,1-0.4h2.8c0.4,0,0.7,0.1,1,0.4
		c0.3,0.3,0.4,0.6,0.4,1v12.4c0,0.4-0.1,0.7-0.4,1c-0.3,0.3-0.6,0.4-1,0.4h-2.8C57.3,24.6,57,24.5,56.7,24.2z M72.8,75.5H60.4V63.2
		h12.4V75.5z M72.8,60.4H60.4V46.6h12.4V60.4z M72.8,43.9H60.4V31.5h12.4V43.9z"/>
</g>
</svg>
