<?xml version="1.0" encoding="utf-8"?>
<!-- Generator: Adobe Illustrator 21.1.0, SVG Export Plug-In . SVG Version: 6.00 Build 0)  -->
<svg version="1.1" id="Layer_1" xmlns="http://www.w3.org/2000/svg" xmlns:xlink="http://www.w3.org/1999/xlink" x="0px" y="0px"
	 viewBox="0 0 85 85" style="enable-background:new 0 0 85 85;" xml:space="preserve">
<style type="text/css">
	.st0{fill:#999999;}
</style>
<g>
	<g>
		<path class="st0" d="M65.5,33.7h-2.7v-7.6c0-11.2-9.1-20.4-20.3-20.4S22.2,14.8,22.2,26v7.6h-2.7c-2.7,0-4.8,2.2-4.8,4.8v35.9
			c0,2.7,2.2,4.8,4.8,4.8h46.1c2.7,0,4.8-2.2,4.8-4.8V38.5C70.4,35.9,68.2,33.7,65.5,33.7L65.5,33.7z M28.3,26.1
			c0-7.8,6.4-14.2,14.2-14.2s14.2,6.4,14.2,14.2v7.6H28.3V26.1L28.3,26.1z M64.2,73.1H20.8V39.8h43.5L64.2,73.1L64.2,73.1z"/>
		<path class="st0" d="M42.5,68.6c1.7,0,3.1-1.4,3.1-3.1v-7.9c0-1.7-1.4-3.1-3.1-3.1c-1.7,0-3.1,1.4-3.1,3.1v7.9
			C39.4,67.2,40.8,68.6,42.5,68.6z"/>
	</g>
</g>
</svg>
