<?xml version="1.0" encoding="utf-8"?>
<!-- Generator: Adobe Illustrator 21.1.0, SVG Export Plug-In . SVG Version: 6.00 Build 0)  -->
<svg version="1.1" id="Layer_1" xmlns="http://www.w3.org/2000/svg" xmlns:xlink="http://www.w3.org/1999/xlink" x="0px" y="0px"
	 viewBox="0 0 85 85" style="enable-background:new 0 0 85 85;" xml:space="preserve">
<style type="text/css">
	.st0{fill:#999999;}
</style>
<g>
	<g>
		<path class="st0" d="M60.2,66.7V51.3c0-0.6-0.5-1.1-1.1-1.1s-1.1,0.5-1.1,1.1v15.4c0,1.1-0.9,1.9-1.9,1.9H29.1
			c-1.1,0-1.9-0.9-1.9-1.9V18.3c0-1.1,0.9-1.9,1.9-1.9h26.9c1.1,0,1.9,0.9,1.9,1.9v38.3c0,0.6,0.5,1.1,1.1,1.1s1.1-0.5,1.1-1.1V18.3
			c0-2.3-1.9-4.2-4.2-4.2H29.1c-2.3,0-4.2,1.9-4.2,4.2v48.4c0,2.3,1.9,4.2,4.2,4.2h26.9C58.3,70.9,60.2,69,60.2,66.7z"/>
		<path class="st0" d="M46,61.7h-6.9c-0.6,0-1.1,0.5-1.1,1.1s0.5,1.1,1.1,1.1H46c0.6,0,1.1-0.5,1.1-1.1S46.6,61.7,46,61.7z"/>
	</g>
</g>
</svg>
