<?xml version="1.0" encoding="utf-8"?>
<!-- Generator: Adobe Illustrator 21.1.0, SVG Export Plug-In . SVG Version: 6.00 Build 0)  -->
<svg version="1.1" id="Layer_1" xmlns="http://www.w3.org/2000/svg" xmlns:xlink="http://www.w3.org/1999/xlink" x="0px" y="0px"
	 viewBox="0 0 85 85" style="enable-background:new 0 0 85 85;" xml:space="preserve">
<style type="text/css">
	.st0{fill:#606F7E;}
</style>
<g>
	<g>
		<path class="st0" d="M42.5,6.8c-19.7,0-35.8,16-35.8,35.8s16,35.8,35.8,35.8s35.8-16,35.8-35.8S62.2,6.8,42.5,6.8z M42.5,70.7
			C27,70.7,14.4,58,14.4,42.5S27,14.4,42.5,14.4S70.7,27,70.7,42.5S58,70.7,42.5,70.7z"/>
		<path class="st0" d="M61.2,41.4H45.1V22.1c0-1.6-1.3-2.9-2.9-2.9c-1.6,0-2.9,1.3-2.9,2.9v22.3c0,1.6,1.3,2.9,2.9,2.9h19
			c1.6,0,2.9-1.3,2.9-2.9C64.1,42.7,62.8,41.4,61.2,41.4z"/>
	</g>
</g>
</svg>
