<?xml version="1.0" encoding="utf-8"?>
<!-- Generator: Adobe Illustrator 21.1.0, SVG Export Plug-In . SVG Version: 6.00 Build 0)  -->
<svg version="1.1" id="Layer_1" xmlns="http://www.w3.org/2000/svg" xmlns:xlink="http://www.w3.org/1999/xlink" x="0px" y="0px"
	 viewBox="0 0 85 85" style="enable-background:new 0 0 85 85;" xml:space="preserve">
<style type="text/css">
	.st0{fill:#999999;}
</style>
<g>
	<g>
		<path class="st0" d="M68.5,53.3c-4-4-8.8-7-14-8.8c5.6-3.8,9.2-10.3,9.2-17.5c0-11.7-9.5-21.2-21.2-21.2S21.3,15.3,21.3,27
			c0,7.3,3.7,13.7,9.2,17.5c-5.2,1.8-10,4.8-14,8.8c-6.9,6.9-10.8,16.2-10.8,26h5.7c0-17.1,13.9-31,31-31s31,13.9,31,31h5.7
			C79.3,69.5,75.4,60.2,68.5,53.3z M42.5,42.5C34,42.5,27,35.6,27,27s7-15.5,15.5-15.5S58,18.5,58,27S51.1,42.5,42.5,42.5z"/>
	</g>
</g>
</svg>
